# xmcd
#
# Track frame offsets:
#	150
#	12752
#	25725
#	37772
#	58445
#	72050
#	86072
#	100642
#	113447
#	128745
#	142230
#	154410
#	166827
#
# Disc length: 2400
#
# Revision: 1
# Processed by: cddbd v1.5.1PL0 Copyright (c) Steve Scherf et al.
# Submitted via: CDex 1.50Beta7
# Normalized: r0:DSETVAR1,TDELIM( - )
#
DISCID=a1095e0d
DTITLE=Various Artist - Jazz Collection 1937, vol.3
DYEAR=1937
DGENRE=Jazz
TTITLE0=Fats Waller and His Rhythm - The Joint Is Jumpin
TTITLE1=Dickie Wells and His Orchestra - Hangin;A Round Boudon
TTITLE2=Duke Ellington and His Famous Orchestra - Caravan
TTITLE3=Bunny Berigan and His Orchestra - I Can't Get Started
TTITLE4=Coleman Hawkins and His All Star Jam Band - Crazy Rhytm
TTITLE5=Eddie South - Eddie's Blues
TTITLE6=Quintette du Hot Club de France - Minor Swing
TTITLE7=Chu Berry and His Orchestra - Maelstrom
TTITLE8=Chick Webb and His Orchestra - Harlem Congo
TTITLE9=Teddy Wilson - Don't Blame Me
TTITLE10=Jimmy Lunceford and His Orchestra - For Dancers Only
TTITLE11=Bill Coleman - Bill Coleman Blues
TTITLE12=Count Basie and His Orchestra - One O'clock Jump
EXTD=YEAR: 1937
EXTT0=
EXTT1=
EXTT2=
EXTT3=
EXTT4=
EXTT5=
EXTT6=
EXTT7=
EXTT8=
EXTT9=
EXTT10=
EXTT11=
EXTT12=
PLAYORDER=
